<?xml version="1.0" encoding="utf-8"?>
<!-- Generator: Adobe Illustrator 22.1.0, SVG Export Plug-In . SVG Version: 6.00 Build 0)  -->
<svg version="1.1" id="Layer_1" xmlns="http://www.w3.org/2000/svg" xmlns:xlink="http://www.w3.org/1999/xlink" x="0px" y="0px"
	 width="320px" height="512px" viewBox="0 0 320 512" style="enable-background:new 0 0 320 512;" xml:space="preserve">
<style type="text/css">
	.st0{fill:#FFFFFF;}
</style>
<path class="st0" d="M207.6,256l107.7-107.7c6.2-6.2,6.2-16.3,0-22.6l-25-25c-6.2-6.2-16.3-6.2-22.6,0L160,208.4L52.3,100.7
	c-6.2-6.2-16.3-6.2-22.6,0l-25,25c-6.2,6.2-6.2,16.3,0,22.6L112.4,256L4.7,363.7c-6.2,6.2-6.2,16.3,0,22.6l25,25
	c6.2,6.2,16.3,6.2,22.6,0L160,303.6l107.7,107.7c6.2,6.2,16.3,6.2,22.6,0l25-25c6.2-6.2,6.2-16.3,0-22.6L207.6,256z"/>
</svg>
